<svg width="20" height="20" viewBox="0 0 20 20" fill="none" xmlns="http://www.w3.org/2000/svg">
<path d="M12.8093 9.95483L8.09265 5.2465C8.01518 5.16839 7.92302 5.1064 7.82147 5.06409C7.71992 5.02178 7.611 5 7.50099 5C7.39098 5 7.28205 5.02178 7.18051 5.06409C7.07896 5.1064 6.98679 5.16839 6.90932 5.2465C6.75411 5.40263 6.66699 5.61384 6.66699 5.834C6.66699 6.05415 6.75411 6.26536 6.90932 6.4215L11.0343 10.5882L6.90932 14.7132C6.75411 14.8693 6.66699 15.0805 6.66699 15.3007C6.66699 15.5208 6.75411 15.732 6.90932 15.8882C6.9865 15.9669 7.07854 16.0295 7.1801 16.0725C7.28166 16.1154 7.39073 16.1377 7.50099 16.1382C7.61124 16.1377 7.72031 16.1154 7.82187 16.0725C7.92344 16.0295 8.01547 15.9669 8.09265 15.8882L12.8093 11.1798C12.8939 11.1018 12.9614 11.0071 13.0076 10.9017C13.0538 10.7963 13.0776 10.6824 13.0776 10.5673C13.0776 10.4522 13.0538 10.3384 13.0076 10.233C12.9614 10.1276 12.8939 10.0329 12.8093 9.95483Z" fill="white"/>
</svg>
