<svg width="20" height="40" viewBox="0 0 20 40" fill="none" xmlns="http://www.w3.org/2000/svg">
    <path
        d="M12.8093 19.9097L8.09265 10.493C8.01518 10.3368 7.92302 10.2128 7.82147 10.1282C7.71992 10.0436 7.611 10 7.50099 10C7.39098 10 7.28205 10.0436 7.18051 10.1282C7.07896 10.2128 6.98679 10.3368 6.90932 10.493C6.75411 10.6453 6.66699 10.9267 6.66699 11.168C6.66699 11.4092 6.75411 11.6907 6.90932 11.843L11.0343 21.1765L6.90932 29.4265C6.75411 29.5826 6.66699 29.794 6.66699 30.0142C6.66699 30.2343 6.75411 30.4455 6.90932 30.6017C6.9865 30.6831 7.07854 30.7573 7.1801 30.8109C7.28166 30.8646 7.39073 30.8944 7.50099 30.8948C7.61124 30.8944 7.72031 30.8646 7.82187 30.8109C7.92344 30.7573 8.01547 30.6831 8.09265 30.6017L12.8093 22.3596C12.8939 22.2036 12.9614 22.0142 13.0076 21.8033C13.0538 21.5924 13.0776 21.3648 13.0776 21.1346C13.0776 20.9045 13.0538 20.677 13.0076 20.466C12.9614 20.2551 12.8939 20.0657 12.8093 19.9097Z"
        fill="white" />
</svg>