<svg width="20" height="40" viewBox="0 0 20 40" fill="none" xmlns="http://www.w3.org/2000/svg">
    <path
        d="M7.19068 20.0904L11.9073 29.507C11.9848 29.6632 12.077 29.7872 12.1785 29.8718C12.2801 29.9564 12.389 30 12.499 30C12.609 30 12.7179 29.9564 12.8195 29.8718C12.921 29.7872 13.0132 29.6632 13.0907 29.507L8.96568 18.8237L13.0907 10.5737C13.2459 10.3174 13.333 10.0388 13.333 9.73865C13.333 9.43851 13.2459 9.15993 13.0907 8.90374C13.0135 8.73786 12.9215 8.59408 12.8199 8.48507C12.7183 8.37606 12.6093 8.31002 12.499 8.30573C12.3888 8.31002 12.2797 8.37606 12.1781 8.48507C12.0766 8.59408 11.9845 8.73786 11.9073 8.90374L7.19068 18.1803C7.10609 18.2964 7.03859 18.4858 6.99241 18.6967C6.94624 18.9076 6.9224 19.1352 6.9224 19.3653C6.9224 19.5953 6.94624 19.8229 6.99241 20.0338C7.03859 20.2447 7.10609 20.4341 7.19068 20.5502Z"
        fill="white" />
</svg>