<svg width="20" height="20" viewBox="0 0 20 20" fill="none" xmlns="http://www.w3.org/2000/svg">
    <path
        d="M7.19068 10.0452L11.9073 14.7535C11.9848 14.8316 12.077 14.8936 12.1785 14.9359C12.2801 14.9782 12.389 15 12.499 15C12.609 15 12.7179 14.9782 12.8195 14.9359C12.921 14.8936 13.0132 14.8316 13.0907 14.7535C13.2459 14.5974 13.333 14.3862 13.333 14.166C13.333 13.9458 13.2459 13.7346 13.0907 13.5785L8.96568 9.41183L13.0907 5.28683C13.2459 5.1307 13.333 4.91949 13.333 4.69933C13.333 4.47918 13.2459 4.26797 13.0907 4.11183C13.0135 4.03309 12.9215 3.97045 12.8199 3.92754C12.7183 3.88462 12.6093 3.86229 12.499 3.86184C12.3888 3.86229 12.2797 3.88462 12.1781 3.92754C12.0766 3.97045 11.9845 4.03309 11.9073 4.11183L7.19068 8.82017C7.10609 8.8982 7.03859 8.99291 6.99241 9.09833C6.94624 9.20374 6.9224 9.31758 6.9224 9.43267C6.9224 9.54775 6.94624 9.66159 6.99241 9.76701C7.03859 9.87242 7.10609 9.96713 7.19068 10.0452Z"
        fill="white" />
</svg>
