<svg width="24" height="24" viewBox="0 0 24 24" fill="none" xmlns="http://www.w3.org/2000/svg">
<mask id="path-1-inside-1_94_9783" fill="white">
<path d="M18.743 16.3723C18.743 16.8433 18.743 17.3123 18.743 17.7834C18.743 18.5239 18.743 19.2664 18.743 20.007C18.743 20.1962 18.7574 20.3916 18.7368 20.5809C18.745 20.5253 18.7512 20.4718 18.7594 20.4163C18.7471 20.4986 18.7265 20.5767 18.6977 20.6528C18.7183 20.6035 18.7388 20.5541 18.7594 20.5047C18.7388 20.5541 18.7142 20.6014 18.6854 20.6467C18.6134 20.7598 18.7183 20.6055 18.7203 20.6076C18.7224 20.6117 18.6648 20.6693 18.6586 20.6755C18.6401 20.694 18.6175 20.7104 18.599 20.729C18.5578 20.7722 18.743 20.6364 18.638 20.696C18.5866 20.7248 18.5393 20.7536 18.4838 20.7783C18.5331 20.7578 18.5825 20.7372 18.6319 20.7166C18.5558 20.7475 18.4755 20.768 18.3953 20.7783C18.4509 20.7701 18.5043 20.7639 18.5599 20.7557C18.4159 20.7722 18.2657 20.7619 18.1217 20.7619C17.8132 20.7619 17.5047 20.7619 17.1961 20.7619C16.1656 20.7619 15.133 20.7619 14.1024 20.7619C12.8579 20.7619 11.6135 20.7619 10.371 20.7619C9.29319 20.7619 8.21533 20.7619 7.13748 20.7619C6.62735 20.7619 6.11721 20.7639 5.60708 20.7619C5.56389 20.7619 5.52069 20.7598 5.47955 20.7557C5.53509 20.7639 5.58857 20.7701 5.64411 20.7783C5.56183 20.766 5.48367 20.7454 5.40756 20.7166C5.45692 20.7372 5.50629 20.7578 5.55566 20.7783C5.50629 20.7578 5.45898 20.7331 5.41373 20.7043C5.30059 20.6323 5.45487 20.7372 5.45281 20.7392C5.4487 20.7413 5.3911 20.6837 5.38493 20.6775C5.36642 20.659 5.34996 20.6364 5.33145 20.6179C5.28825 20.5767 5.42401 20.7619 5.36436 20.657C5.33556 20.6055 5.30677 20.5582 5.28208 20.5027C5.30265 20.5521 5.32322 20.6014 5.34379 20.6508C5.31294 20.5747 5.29237 20.4945 5.28208 20.4142C5.29031 20.4698 5.29648 20.5233 5.30471 20.5788C5.28825 20.4225 5.29854 20.2579 5.29854 20.1016C5.29854 19.7786 5.29854 19.4557 5.29854 19.1327C5.29854 18.384 5.29854 17.6353 5.29854 16.8845C5.29854 16.7117 5.29854 16.5389 5.29854 16.3661C4.94679 16.5122 4.59711 16.6561 4.24536 16.8022C4.58477 17.0778 4.95502 17.2876 5.38082 17.4069C5.78604 17.5221 6.20978 17.5448 6.62735 17.4892C7.38637 17.3864 8.10631 17.0058 8.58765 16.4052C8.29761 16.4052 8.00552 16.4052 7.71549 16.4052C8.13511 16.9277 8.76455 17.3144 9.42278 17.4481C10.1592 17.6003 10.9244 17.4954 11.5847 17.1334C11.9158 16.9523 12.2203 16.6993 12.4568 16.4052C12.1668 16.4052 11.8747 16.4052 11.5847 16.4052C12.0043 16.9277 12.6337 17.3144 13.292 17.4481C14.0284 17.6003 14.7936 17.4954 15.4538 17.1334C15.785 16.9523 16.0895 16.6993 16.326 16.4052C16.036 16.4052 15.7439 16.4052 15.4538 16.4052C15.9125 16.977 16.614 17.3761 17.338 17.4789C18.1649 17.5962 19.0145 17.4152 19.683 16.8989C19.8167 16.796 19.9195 16.6993 19.9669 16.5307C20.008 16.3826 19.9895 16.1871 19.9051 16.0555C19.8208 15.9239 19.6933 15.8087 19.5369 15.7716C19.3868 15.7367 19.1893 15.7346 19.0618 15.8333C18.8787 15.9753 18.6812 16.0905 18.4694 16.181C18.5187 16.1604 18.5681 16.1398 18.6175 16.1193C18.4221 16.1995 18.2184 16.255 18.0086 16.2859C18.0642 16.2777 18.1176 16.2715 18.1732 16.2633C17.951 16.2921 17.7268 16.2941 17.5047 16.2653C17.5602 16.2735 17.6137 16.2797 17.6692 16.2879C17.4491 16.2571 17.2352 16.1995 17.0295 16.1131C17.0789 16.1337 17.1282 16.1542 17.1776 16.1748C17.083 16.1337 16.9904 16.0884 16.8999 16.0349C16.8608 16.0123 16.8197 15.9876 16.7827 15.9609C16.7621 15.9465 16.7395 15.9321 16.7189 15.9177C16.6983 15.9033 16.6202 15.8436 16.7065 15.9115C16.795 15.9815 16.7107 15.9136 16.6963 15.9033C16.6798 15.8909 16.6654 15.8765 16.6489 15.8642C16.6099 15.8313 16.5728 15.7963 16.5358 15.7593C16.4618 15.6873 16.3939 15.6112 16.3301 15.531C16.2417 15.4199 16.0319 15.3438 15.894 15.35C15.7418 15.3561 15.5588 15.4055 15.458 15.531C15.3942 15.6112 15.3263 15.6873 15.2523 15.7593C15.2193 15.7922 15.1864 15.8231 15.1515 15.8539C15.133 15.8704 15.1124 15.8868 15.0939 15.9033C15.0754 15.9197 14.9972 15.9794 15.0836 15.9115C15.172 15.8416 15.0877 15.9074 15.0712 15.9177C15.0548 15.93 15.0383 15.9403 15.0198 15.9527C14.9766 15.9815 14.9334 16.0082 14.8882 16.0349C14.7997 16.0864 14.7051 16.1337 14.6105 16.1748C14.6599 16.1542 14.7092 16.1337 14.7586 16.1131C14.5529 16.1995 14.341 16.2571 14.1189 16.2879C14.1744 16.2797 14.2279 16.2735 14.2834 16.2653C14.0674 16.2921 13.8494 16.2921 13.6314 16.2653C13.6869 16.2735 13.7404 16.2797 13.7959 16.2879C13.5758 16.2571 13.3619 16.1995 13.1562 16.1131C13.2056 16.1337 13.2549 16.1542 13.3043 16.1748C13.2097 16.1337 13.1171 16.0884 13.0266 16.0349C12.9875 16.0123 12.9464 15.9876 12.9094 15.9609C12.8888 15.9465 12.8662 15.9321 12.8456 15.9177C12.825 15.9033 12.7469 15.8436 12.8333 15.9115C12.9217 15.9815 12.8374 15.9136 12.823 15.9033C12.8065 15.8909 12.7921 15.8765 12.7757 15.8642C12.7366 15.8313 12.6995 15.7963 12.6625 15.7593C12.5885 15.6873 12.5206 15.6112 12.4568 15.531C12.3684 15.4199 12.1586 15.3438 12.0207 15.35C11.8685 15.3561 11.6855 15.4055 11.5847 15.531C11.5209 15.6112 11.453 15.6873 11.379 15.7593C11.3461 15.7922 11.3131 15.8231 11.2782 15.8539C11.2597 15.8704 11.2391 15.8868 11.2206 15.9033C11.2021 15.9197 11.1239 15.9794 11.2103 15.9115C11.2987 15.8416 11.2144 15.9074 11.198 15.9177C11.1815 15.93 11.165 15.9403 11.1465 15.9527C11.1033 15.9815 11.0601 16.0082 11.0149 16.0349C10.9264 16.0864 10.8339 16.1337 10.7372 16.1748C10.7866 16.1542 10.8359 16.1337 10.8853 16.1131C10.6796 16.1995 10.4677 16.2571 10.2456 16.2879C10.3011 16.2797 10.3546 16.2735 10.4101 16.2653C10.1941 16.2921 9.97611 16.2921 9.75807 16.2653C9.81361 16.2735 9.86709 16.2797 9.92263 16.2879C9.70253 16.2571 9.4886 16.1995 9.28496 16.1131C9.33433 16.1337 9.3837 16.1542 9.43306 16.1748C9.33844 16.1337 9.24588 16.0884 9.15537 16.0349C9.11629 16.0123 9.07515 15.9876 9.03813 15.9609C9.01756 15.9465 8.99493 15.9321 8.97436 15.9177C8.95379 15.9033 8.87562 15.8436 8.96202 15.9115C9.05047 15.9815 8.96613 15.9136 8.95173 15.9033C8.93528 15.8909 8.92088 15.8765 8.90442 15.8642C8.86534 15.8313 8.82831 15.7963 8.79129 15.7593C8.71724 15.6873 8.64936 15.6112 8.58559 15.531C8.49714 15.4199 8.28733 15.3438 8.14951 15.35C7.99729 15.3561 7.81422 15.4055 7.71343 15.531C7.64966 15.6112 7.58178 15.6873 7.50773 15.7593C7.47482 15.7922 7.44191 15.8231 7.40694 15.8539C7.38843 15.8704 7.36786 15.8868 7.34935 15.9033C7.33083 15.9197 7.25267 15.9794 7.33906 15.9115C7.42751 15.8416 7.34317 15.9074 7.32672 15.9177C7.31026 15.93 7.29381 15.9403 7.27529 15.9527C7.2321 15.9815 7.1889 16.0082 7.1457 16.0349C7.05725 16.0864 6.96469 16.1337 6.87007 16.1748C6.91944 16.1542 6.9688 16.1337 7.01817 16.1131C6.81247 16.1995 6.60061 16.2571 6.38051 16.2879C6.43605 16.2797 6.48953 16.2735 6.54507 16.2653C6.32291 16.2941 6.0987 16.2921 5.87449 16.2633C5.93003 16.2715 5.98351 16.2777 6.03905 16.2859C5.82924 16.255 5.62354 16.1995 5.42813 16.1193C5.47749 16.1398 5.52686 16.1604 5.57623 16.181C5.47544 16.1378 5.37876 16.0905 5.28414 16.0349C5.243 16.0102 5.20186 15.9835 5.16072 15.9568C5.13809 15.9424 5.11752 15.9259 5.0949 15.9115C5.00439 15.8498 5.21009 16.002 5.11958 15.93C4.92005 15.7696 4.69379 15.6976 4.44489 15.8025C4.22068 15.8971 4.06641 16.1193 4.06641 16.3661C4.06641 17.1354 4.06641 17.9027 4.06641 18.672C4.06641 19.141 4.06641 19.612 4.06641 20.081C4.06641 20.5212 4.06435 20.9573 4.33998 21.3337C4.6403 21.743 5.08667 21.9899 5.60091 21.9981C5.62971 21.9981 5.66057 21.9981 5.68936 21.9981C5.87449 21.9981 6.05756 21.9981 6.24269 21.9981C6.99143 21.9981 7.74223 21.9981 8.49097 21.9981C9.53591 21.9981 10.5809 21.9981 11.6258 21.9981C12.7037 21.9981 13.7795 21.9981 14.8573 21.9981C15.7027 21.9981 16.5502 21.9981 17.3956 21.9981C17.7494 21.9981 18.1012 22.0022 18.455 21.9981C18.9754 21.9919 19.432 21.7348 19.7303 21.3131C19.9113 21.056 19.9874 20.7372 19.9874 20.4245C19.9874 20.0934 19.9874 19.7642 19.9874 19.4331C19.9874 18.4745 19.9874 17.518 19.9874 16.5595C19.9874 16.4957 19.9874 16.4319 19.9874 16.3682C19.9874 16.0452 19.7036 15.7367 19.3703 15.7511C19.0248 15.7716 18.743 16.0267 18.743 16.3723Z"/>
</mask>
<path d="M18.743 16.3723C18.743 16.8433 18.743 17.3123 18.743 17.7834C18.743 18.5239 18.743 19.2664 18.743 20.007C18.743 20.1962 18.7574 20.3916 18.7368 20.5809C18.745 20.5253 18.7512 20.4718 18.7594 20.4163C18.7471 20.4986 18.7265 20.5767 18.6977 20.6528C18.7183 20.6035 18.7388 20.5541 18.7594 20.5047C18.7388 20.5541 18.7142 20.6014 18.6854 20.6467C18.6134 20.7598 18.7183 20.6055 18.7203 20.6076C18.7224 20.6117 18.6648 20.6693 18.6586 20.6755C18.6401 20.694 18.6175 20.7104 18.599 20.729C18.5578 20.7722 18.743 20.6364 18.638 20.696C18.5866 20.7248 18.5393 20.7536 18.4838 20.7783C18.5331 20.7578 18.5825 20.7372 18.6319 20.7166C18.5558 20.7475 18.4755 20.768 18.3953 20.7783C18.4509 20.7701 18.5043 20.7639 18.5599 20.7557C18.4159 20.7722 18.2657 20.7619 18.1217 20.7619C17.8132 20.7619 17.5047 20.7619 17.1961 20.7619C16.1656 20.7619 15.133 20.7619 14.1024 20.7619C12.8579 20.7619 11.6135 20.7619 10.371 20.7619C9.29319 20.7619 8.21533 20.7619 7.13748 20.7619C6.62735 20.7619 6.11721 20.7639 5.60708 20.7619C5.56389 20.7619 5.52069 20.7598 5.47955 20.7557C5.53509 20.7639 5.58857 20.7701 5.64411 20.7783C5.56183 20.766 5.48367 20.7454 5.40756 20.7166C5.45692 20.7372 5.50629 20.7578 5.55566 20.7783C5.50629 20.7578 5.45898 20.7331 5.41373 20.7043C5.30059 20.6323 5.45487 20.7372 5.45281 20.7392C5.4487 20.7413 5.3911 20.6837 5.38493 20.6775C5.36642 20.659 5.34996 20.6364 5.33145 20.6179C5.28825 20.5767 5.42401 20.7619 5.36436 20.657C5.33556 20.6055 5.30677 20.5582 5.28208 20.5027C5.30265 20.5521 5.32322 20.6014 5.34379 20.6508C5.31294 20.5747 5.29237 20.4945 5.28208 20.4142C5.29031 20.4698 5.29648 20.5233 5.30471 20.5788C5.28825 20.4225 5.29854 20.2579 5.29854 20.1016C5.29854 19.7786 5.29854 19.4557 5.29854 19.1327C5.29854 18.384 5.29854 17.6353 5.29854 16.8845C5.29854 16.7117 5.29854 16.5389 5.29854 16.3661C4.94679 16.5122 4.59711 16.6561 4.24536 16.8022C4.58477 17.0778 4.95502 17.2876 5.38082 17.4069C5.78604 17.5221 6.20978 17.5448 6.62735 17.4892C7.38637 17.3864 8.10631 17.0058 8.58765 16.4052C8.29761 16.4052 8.00552 16.4052 7.71549 16.4052C8.13511 16.9277 8.76455 17.3144 9.42278 17.4481C10.1592 17.6003 10.9244 17.4954 11.5847 17.1334C11.9158 16.9523 12.2203 16.6993 12.4568 16.4052C12.1668 16.4052 11.8747 16.4052 11.5847 16.4052C12.0043 16.9277 12.6337 17.3144 13.292 17.4481C14.0284 17.6003 14.7936 17.4954 15.4538 17.1334C15.785 16.9523 16.0895 16.6993 16.326 16.4052C16.036 16.4052 15.7439 16.4052 15.4538 16.4052C15.9125 16.977 16.614 17.3761 17.338 17.4789C18.1649 17.5962 19.0145 17.4152 19.683 16.8989C19.8167 16.796 19.9195 16.6993 19.9669 16.5307C20.008 16.3826 19.9895 16.1871 19.9051 16.0555C19.8208 15.9239 19.6933 15.8087 19.5369 15.7716C19.3868 15.7367 19.1893 15.7346 19.0618 15.8333C18.8787 15.9753 18.6812 16.0905 18.4694 16.181C18.5187 16.1604 18.5681 16.1398 18.6175 16.1193C18.4221 16.1995 18.2184 16.255 18.0086 16.2859C18.0642 16.2777 18.1176 16.2715 18.1732 16.2633C17.951 16.2921 17.7268 16.2941 17.5047 16.2653C17.5602 16.2735 17.6137 16.2797 17.6692 16.2879C17.4491 16.2571 17.2352 16.1995 17.0295 16.1131C17.0789 16.1337 17.1282 16.1542 17.1776 16.1748C17.083 16.1337 16.9904 16.0884 16.8999 16.0349C16.8608 16.0123 16.8197 15.9876 16.7827 15.9609C16.7621 15.9465 16.7395 15.9321 16.7189 15.9177C16.6983 15.9033 16.6202 15.8436 16.7065 15.9115C16.795 15.9815 16.7107 15.9136 16.6963 15.9033C16.6798 15.8909 16.6654 15.8765 16.6489 15.8642C16.6099 15.8313 16.5728 15.7963 16.5358 15.7593C16.4618 15.6873 16.3939 15.6112 16.3301 15.531C16.2417 15.4199 16.0319 15.3438 15.894 15.35C15.7418 15.3561 15.5588 15.4055 15.458 15.531C15.3942 15.6112 15.3263 15.6873 15.2523 15.7593C15.2193 15.7922 15.1864 15.8231 15.1515 15.8539C15.133 15.8704 15.1124 15.8868 15.0939 15.9033C15.0754 15.9197 14.9972 15.9794 15.0836 15.9115C15.172 15.8416 15.0877 15.9074 15.0712 15.9177C15.0548 15.93 15.0383 15.9403 15.0198 15.9527C14.9766 15.9815 14.9334 16.0082 14.8882 16.0349C14.7997 16.0864 14.7051 16.1337 14.6105 16.1748C14.6599 16.1542 14.7092 16.1337 14.7586 16.1131C14.5529 16.1995 14.341 16.2571 14.1189 16.2879C14.1744 16.2797 14.2279 16.2735 14.2834 16.2653C14.0674 16.2921 13.8494 16.2921 13.6314 16.2653C13.6869 16.2735 13.7404 16.2797 13.7959 16.2879C13.5758 16.2571 13.3619 16.1995 13.1562 16.1131C13.2056 16.1337 13.2549 16.1542 13.3043 16.1748C13.2097 16.1337 13.1171 16.0884 13.0266 16.0349C12.9875 16.0123 12.9464 15.9876 12.9094 15.9609C12.8888 15.9465 12.8662 15.9321 12.8456 15.9177C12.825 15.9033 12.7469 15.8436 12.8333 15.9115C12.9217 15.9815 12.8374 15.9136 12.823 15.9033C12.8065 15.8909 12.7921 15.8765 12.7757 15.8642C12.7366 15.8313 12.6995 15.7963 12.6625 15.7593C12.5885 15.6873 12.5206 15.6112 12.4568 15.531C12.3684 15.4199 12.1586 15.3438 12.0207 15.35C11.8685 15.3561 11.6855 15.4055 11.5847 15.531C11.5209 15.6112 11.453 15.6873 11.379 15.7593C11.3461 15.7922 11.3131 15.8231 11.2782 15.8539C11.2597 15.8704 11.2391 15.8868 11.2206 15.9033C11.2021 15.9197 11.1239 15.9794 11.2103 15.9115C11.2987 15.8416 11.2144 15.9074 11.198 15.9177C11.1815 15.93 11.165 15.9403 11.1465 15.9527C11.1033 15.9815 11.0601 16.0082 11.0149 16.0349C10.9264 16.0864 10.8339 16.1337 10.7372 16.1748C10.7866 16.1542 10.8359 16.1337 10.8853 16.1131C10.6796 16.1995 10.4677 16.2571 10.2456 16.2879C10.3011 16.2797 10.3546 16.2735 10.4101 16.2653C10.1941 16.2921 9.97611 16.2921 9.75807 16.2653C9.81361 16.2735 9.86709 16.2797 9.92263 16.2879C9.70253 16.2571 9.4886 16.1995 9.28496 16.1131C9.33433 16.1337 9.3837 16.1542 9.43306 16.1748C9.33844 16.1337 9.24588 16.0884 9.15537 16.0349C9.11629 16.0123 9.07515 15.9876 9.03813 15.9609C9.01756 15.9465 8.99493 15.9321 8.97436 15.9177C8.95379 15.9033 8.87562 15.8436 8.96202 15.9115C9.05047 15.9815 8.96613 15.9136 8.95173 15.9033C8.93528 15.8909 8.92088 15.8765 8.90442 15.8642C8.86534 15.8313 8.82831 15.7963 8.79129 15.7593C8.71724 15.6873 8.64936 15.6112 8.58559 15.531C8.49714 15.4199 8.28733 15.3438 8.14951 15.35C7.99729 15.3561 7.81422 15.4055 7.71343 15.531C7.64966 15.6112 7.58178 15.6873 7.50773 15.7593C7.47482 15.7922 7.44191 15.8231 7.40694 15.8539C7.38843 15.8704 7.36786 15.8868 7.34935 15.9033C7.33083 15.9197 7.25267 15.9794 7.33906 15.9115C7.42751 15.8416 7.34317 15.9074 7.32672 15.9177C7.31026 15.93 7.29381 15.9403 7.27529 15.9527C7.2321 15.9815 7.1889 16.0082 7.1457 16.0349C7.05725 16.0864 6.96469 16.1337 6.87007 16.1748C6.91944 16.1542 6.9688 16.1337 7.01817 16.1131C6.81247 16.1995 6.60061 16.2571 6.38051 16.2879C6.43605 16.2797 6.48953 16.2735 6.54507 16.2653C6.32291 16.2941 6.0987 16.2921 5.87449 16.2633C5.93003 16.2715 5.98351 16.2777 6.03905 16.2859C5.82924 16.255 5.62354 16.1995 5.42813 16.1193C5.47749 16.1398 5.52686 16.1604 5.57623 16.181C5.47544 16.1378 5.37876 16.0905 5.28414 16.0349C5.243 16.0102 5.20186 15.9835 5.16072 15.9568C5.13809 15.9424 5.11752 15.9259 5.0949 15.9115C5.00439 15.8498 5.21009 16.002 5.11958 15.93C4.92005 15.7696 4.69379 15.6976 4.44489 15.8025C4.22068 15.8971 4.06641 16.1193 4.06641 16.3661C4.06641 17.1354 4.06641 17.9027 4.06641 18.672C4.06641 19.141 4.06641 19.612 4.06641 20.081C4.06641 20.5212 4.06435 20.9573 4.33998 21.3337C4.6403 21.743 5.08667 21.9899 5.60091 21.9981C5.62971 21.9981 5.66057 21.9981 5.68936 21.9981C5.87449 21.9981 6.05756 21.9981 6.24269 21.9981C6.99143 21.9981 7.74223 21.9981 8.49097 21.9981C9.53591 21.9981 10.5809 21.9981 11.6258 21.9981C12.7037 21.9981 13.7795 21.9981 14.8573 21.9981C15.7027 21.9981 16.5502 21.9981 17.3956 21.9981C17.7494 21.9981 18.1012 22.0022 18.455 21.9981C18.9754 21.9919 19.432 21.7348 19.7303 21.3131C19.9113 21.056 19.9874 20.7372 19.9874 20.4245C19.9874 20.0934 19.9874 19.7642 19.9874 19.4331C19.9874 18.4745 19.9874 17.518 19.9874 16.5595C19.9874 16.4957 19.9874 16.4319 19.9874 16.3682C19.9874 16.0452 19.7036 15.7367 19.3703 15.7511C19.0248 15.7716 18.743 16.0267 18.743 16.3723Z" fill="#7C7C8D" stroke="#7C7C8D" stroke-width="2" mask="url(#path-1-inside-1_94_9783)"/>
<path d="M19.6584 14.447C19.6584 14.556 19.6502 14.663 19.6378 14.772C19.646 14.7165 19.6522 14.663 19.6604 14.6075C19.6296 14.8276 19.572 15.0394 19.4877 15.2431C19.5082 15.1937 19.5288 15.1443 19.5494 15.095C19.4877 15.2369 19.4157 15.3727 19.3313 15.5002C19.3087 15.5352 19.284 15.5681 19.2614 15.601C19.1997 15.6874 19.3581 15.4858 19.282 15.5722C19.2326 15.6298 19.1832 15.6874 19.1277 15.7429C19.0742 15.7964 19.0187 15.8499 18.959 15.8972C18.922 15.928 18.8376 15.9754 18.9858 15.8787C18.9487 15.9013 18.9158 15.9301 18.8808 15.9548C18.7451 16.0474 18.6011 16.1235 18.4509 16.1872C18.5003 16.1667 18.5497 16.1461 18.599 16.1255C18.4036 16.2057 18.2 16.2613 17.9902 16.2921C18.0457 16.2839 18.0992 16.2777 18.1547 16.2695C17.9326 16.2983 17.7084 16.3004 17.4862 16.2716C17.5418 16.2798 17.5952 16.286 17.6508 16.2942C17.4307 16.2633 17.2168 16.2057 17.0111 16.1193C17.0604 16.1399 17.1098 16.1605 17.1592 16.1811C17.0645 16.1399 16.972 16.0947 16.8815 16.0412C16.8424 16.0186 16.8012 15.9939 16.7642 15.9671C16.7436 15.9527 16.721 15.9383 16.7004 15.9239C16.6799 15.9095 16.6017 15.8499 16.6881 15.9178C16.7766 15.9877 16.6922 15.9198 16.6778 15.9095C16.6614 15.8972 16.647 15.8828 16.6305 15.8705C16.5914 15.8375 16.5544 15.8026 16.5174 15.7655C16.4433 15.6935 16.3754 15.6174 16.3117 15.5372C16.2232 15.4261 16.0134 15.35 15.8756 15.3562C15.7234 15.3624 15.5403 15.4117 15.4395 15.5372C15.3758 15.6174 15.3079 15.6935 15.2338 15.7655C15.2009 15.7985 15.168 15.8293 15.133 15.8602C15.1145 15.8766 15.094 15.8931 15.0754 15.9095C15.0569 15.926 14.9788 15.9856 15.0652 15.9178C15.1536 15.8478 15.0693 15.9136 15.0528 15.9239C15.0364 15.9363 15.0199 15.9466 15.0014 15.9589C14.9582 15.9877 14.915 16.0144 14.8697 16.0412C14.7813 16.0926 14.6867 16.1399 14.592 16.1811C14.6414 16.1605 14.6908 16.1399 14.7402 16.1193C14.5345 16.2057 14.3226 16.2633 14.1004 16.2942C14.156 16.286 14.2095 16.2798 14.265 16.2716C14.049 16.2983 13.831 16.2983 13.6129 16.2716C13.6685 16.2798 13.7219 16.286 13.7775 16.2942C13.5574 16.2633 13.3435 16.2057 13.1378 16.1193C13.1871 16.1399 13.2365 16.1605 13.2859 16.1811C13.1912 16.1399 13.0987 16.0947 13.0082 16.0412C12.9691 16.0186 12.928 15.9939 12.8909 15.9671C12.8704 15.9527 12.8477 15.9383 12.8272 15.9239C12.8066 15.9095 12.7284 15.8499 12.8148 15.9178C12.9033 15.9877 12.8189 15.9198 12.8045 15.9095C12.7881 15.8972 12.7737 15.8828 12.7572 15.8705C12.7181 15.8375 12.6811 15.8026 12.6441 15.7655C12.57 15.6935 12.5022 15.6174 12.4384 15.5372C12.3499 15.4261 12.1401 15.35 12.0023 15.3562C11.8501 15.3624 11.667 15.4117 11.5662 15.5372C11.5025 15.6174 11.4346 15.6935 11.3605 15.7655C11.3276 15.7985 11.2947 15.8293 11.2597 15.8602C11.2412 15.8766 11.2207 15.8931 11.2022 15.9095C11.1836 15.926 11.1055 15.9856 11.1919 15.9178C11.2803 15.8478 11.196 15.9136 11.1795 15.9239C11.1631 15.9363 11.1466 15.9466 11.1281 15.9589C11.0849 15.9877 11.0417 16.0144 10.9965 16.0412C10.908 16.0926 10.8134 16.1399 10.7188 16.1811C10.7681 16.1605 10.8175 16.1399 10.8669 16.1193C10.6612 16.2057 10.4493 16.2633 10.2271 16.2942C10.2827 16.286 10.3362 16.2798 10.3917 16.2716C10.1757 16.2983 9.95768 16.2983 9.73964 16.2716C9.79518 16.2798 9.84866 16.286 9.9042 16.2942C9.6841 16.2633 9.47018 16.2057 9.26448 16.1193C9.31385 16.1399 9.36321 16.1605 9.41258 16.1811C9.31796 16.1399 9.2254 16.0947 9.13489 16.0412C9.09581 16.0186 9.05467 15.9939 9.01764 15.9671C8.99707 15.9527 8.97444 15.9383 8.95387 15.9239C8.9333 15.9095 8.85514 15.8499 8.94153 15.9178C9.02998 15.9877 8.94565 15.9198 8.93125 15.9095C8.91479 15.8972 8.90039 15.8828 8.88394 15.8705C8.84485 15.8375 8.80783 15.8026 8.7708 15.7655C8.69675 15.6935 8.62887 15.6174 8.56511 15.5372C8.47666 15.4261 8.26684 15.35 8.12903 15.3562C7.97681 15.3624 7.79374 15.4117 7.69295 15.5372C7.62918 15.6174 7.5613 15.6935 7.48725 15.7655C7.45434 15.7985 7.42143 15.8293 7.38646 15.8602C7.36795 15.8766 7.34738 15.8931 7.32886 15.9095C7.31035 15.926 7.23218 15.9856 7.31858 15.9178C7.40703 15.8478 7.32269 15.9136 7.30624 15.9239C7.28978 15.9363 7.27332 15.9466 7.25481 15.9589C7.21162 15.9877 7.16842 16.0144 7.12317 16.0412C7.03471 16.0926 6.94009 16.1399 6.84547 16.1811C6.89484 16.1605 6.94421 16.1399 6.99358 16.1193C6.78788 16.2057 6.57395 16.2633 6.35386 16.2942C6.40939 16.286 6.46288 16.2798 6.51841 16.2716C6.29626 16.3004 6.07205 16.2983 5.8499 16.2695C5.90543 16.2777 5.95892 16.2839 6.01445 16.2921C5.80464 16.2613 5.601 16.2057 5.40559 16.1255C5.45496 16.1461 5.50432 16.1667 5.55369 16.1872C5.40353 16.1235 5.25954 16.0453 5.12378 15.9548C5.08881 15.9301 5.04973 15.9075 5.01888 15.8787C5.04356 15.8972 5.06824 15.9157 5.09293 15.9363C5.07647 15.9239 5.06207 15.9116 5.04562 15.8972C4.98802 15.8478 4.93043 15.7964 4.87695 15.7409C4.82346 15.6853 4.7741 15.6277 4.72267 15.5701C4.64656 15.4817 4.81112 15.6935 4.74324 15.5989C4.72062 15.566 4.69593 15.5331 4.67331 15.4981C4.58691 15.3706 4.51492 15.2328 4.45527 15.0909C4.47584 15.1402 4.49641 15.1896 4.51698 15.239C4.43264 15.0353 4.37504 14.8214 4.34419 14.6033C4.35242 14.6589 4.35859 14.7124 4.36682 14.7679C4.34008 14.5458 4.34008 14.3236 4.36887 14.1014C4.36065 14.157 4.35447 14.2105 4.34625 14.266C4.3771 14.0541 4.43264 13.8505 4.51492 13.653C4.49435 13.7024 4.47378 13.7518 4.45321 13.8011C4.51286 13.6592 4.58486 13.5234 4.67125 13.3959C4.69388 13.363 4.7165 13.3301 4.74119 13.2972C4.81112 13.1984 4.64862 13.4082 4.72679 13.3157C4.77821 13.254 4.83169 13.1943 4.88929 13.1367C4.94277 13.0832 5.00036 13.0318 5.05796 12.9824C5.06413 12.9783 5.09293 12.9475 5.0991 12.9495C5.0991 12.9495 4.96951 13.0462 5.03739 12.9968C5.0703 12.9742 5.10321 12.9495 5.13613 12.9269C5.26777 12.8385 5.40765 12.7644 5.55369 12.7027C5.50432 12.7233 5.45496 12.7438 5.40559 12.7644C5.60306 12.6821 5.8067 12.6266 6.01857 12.5957C5.96303 12.604 5.90955 12.6101 5.85401 12.6184C6.07411 12.5896 6.29832 12.5957 6.52047 12.5957C6.8105 12.5957 7.10054 12.5957 7.39263 12.5957C8.3265 12.5957 9.26242 12.5978 10.1963 12.5978C12.2389 12.5998 14.2814 12.6019 16.3261 12.6019C16.6819 12.6019 17.0398 12.6019 17.3957 12.6019C17.6446 12.6019 17.8976 12.5937 18.1465 12.6245C18.091 12.6163 18.0375 12.6101 17.9819 12.6019C18.1938 12.6328 18.3975 12.6883 18.5949 12.7685C18.5456 12.7479 18.4962 12.7274 18.4468 12.7068C18.5888 12.7665 18.7245 12.8385 18.852 12.9228C18.885 12.9454 18.9179 12.968 18.9508 12.9927C19.0495 13.0627 18.8397 12.9002 18.9323 12.9783C18.994 13.0298 19.0536 13.0832 19.1112 13.1408C19.1647 13.1943 19.2161 13.2498 19.2655 13.3095C19.2696 13.3136 19.3005 13.3465 19.2984 13.3506C19.2984 13.3506 19.2017 13.2211 19.2511 13.2889C19.2737 13.3218 19.2984 13.3548 19.321 13.3877C19.4095 13.5193 19.4835 13.6592 19.5452 13.8032C19.5247 13.7538 19.5041 13.7044 19.4835 13.6551C19.5658 13.8525 19.6214 14.0562 19.6522 14.266C19.644 14.2105 19.6378 14.157 19.6296 14.1014C19.6502 14.2187 19.6584 14.3318 19.6584 14.447C19.6604 14.77 19.9402 15.0785 20.2755 15.0641C20.6087 15.0497 20.8946 14.7926 20.8926 14.447C20.8905 13.9451 20.7671 13.4555 20.5367 13.0092C20.3187 12.5834 19.9916 12.2358 19.6111 11.9498C19.2676 11.6927 18.8479 11.5076 18.4242 11.4294C18.1259 11.3739 17.8318 11.3657 17.5294 11.3657C15.6411 11.3636 13.7528 11.3636 11.8645 11.3615C10.0358 11.3595 8.20719 11.3574 6.3806 11.3574C6.04737 11.3574 5.71619 11.378 5.39325 11.4644C4.92426 11.5899 4.50052 11.8326 4.13643 12.1514C3.43706 12.7644 3.04007 13.7435 3.12646 14.6712C3.17583 15.204 3.33627 15.7306 3.64687 16.1708C3.95336 16.6069 4.35859 16.9833 4.84609 17.2116C5.36445 17.4543 5.93835 17.5757 6.51019 17.5078C7.05117 17.442 7.56953 17.2671 8.00972 16.936C8.21748 16.7796 8.40878 16.613 8.57128 16.4094C8.28124 16.4094 7.98915 16.4094 7.69912 16.4094C8.11874 16.9319 8.74818 17.3186 9.40641 17.4523C10.1428 17.6045 10.908 17.4996 11.5683 17.1376C11.8995 16.9565 12.2039 16.7035 12.4405 16.4094C12.1504 16.4094 11.8583 16.4094 11.5683 16.4094C11.9879 16.9319 12.6173 17.3186 13.2756 17.4523C14.012 17.6045 14.7772 17.4996 15.4375 17.1376C15.7686 16.9565 16.0731 16.7035 16.3096 16.4094C16.0196 16.4094 15.7275 16.4094 15.4375 16.4094C16.034 17.152 17.0152 17.5819 17.9634 17.5222C18.9878 17.4584 19.9299 16.9051 20.4606 16.0186C20.7424 15.5454 20.8885 14.9942 20.8926 14.445C20.8946 14.122 20.6066 13.8135 20.2755 13.8279C19.9402 13.8443 19.6604 14.1014 19.6584 14.447Z" fill="#7C7C8D"/>
<path d="M12.7567 8.96336C12.7567 9.84375 12.7567 10.7241 12.7567 11.6045C12.7567 11.7321 12.7567 11.8575 12.7567 11.9851C12.9624 11.7794 13.1681 11.5737 13.3738 11.368C12.4687 11.368 11.5636 11.3659 10.6585 11.3659C10.8642 11.5716 11.0699 11.7773 11.2756 11.983C11.2756 11.0944 11.2756 10.2058 11.2756 9.31716C11.2756 9.1814 11.2674 9.04358 11.2797 8.90988C11.2715 8.96542 11.2653 9.0189 11.2571 9.07444C11.2633 9.03741 11.2715 9.00244 11.2839 8.96747C11.2633 9.01684 11.2427 9.06621 11.2221 9.11558C11.2324 9.09089 11.2468 9.06827 11.2571 9.04358C11.3003 8.95308 11.1584 9.15877 11.2263 9.08472C11.2921 9.01273 11.0926 9.16083 11.1851 9.11558C11.2098 9.10324 11.2324 9.09089 11.2571 9.08061C11.2078 9.10118 11.1584 9.12175 11.109 9.14232C11.144 9.12998 11.179 9.12175 11.216 9.11558C11.1604 9.1238 11.107 9.12998 11.0514 9.1382C11.2674 9.11763 11.4937 9.13409 11.7097 9.13409C12.0429 9.13409 12.3761 9.13409 12.7073 9.13409C12.7957 9.13409 12.8862 9.12998 12.9747 9.1382C12.9192 9.12998 12.8657 9.1238 12.8101 9.11558C12.8472 9.12175 12.8821 9.12998 12.9171 9.14232C12.8677 9.12175 12.8184 9.10118 12.769 9.08061C12.7937 9.09089 12.8163 9.10529 12.841 9.11558C12.9315 9.15877 12.7258 9.01684 12.7999 9.08472C12.8719 9.15055 12.7237 8.95102 12.769 9.04358C12.7813 9.06827 12.7937 9.09089 12.804 9.11558C12.7834 9.06621 12.7628 9.01684 12.7423 8.96747C12.7546 9.00244 12.7628 9.03741 12.769 9.07444C12.7608 9.0189 12.7546 8.96542 12.7464 8.90988C12.7546 8.92428 12.7567 8.94279 12.7567 8.96336C12.7669 9.28631 13.0323 9.59485 13.3738 9.58045C13.6988 9.56605 14.0011 9.30893 13.9908 8.96336C13.9723 8.36067 13.5013 7.89785 12.8965 7.89373C12.7114 7.89167 12.5242 7.89373 12.3391 7.89373C11.9298 7.89373 11.5204 7.88345 11.1111 7.89373C10.5125 7.91019 10.0517 8.37712 10.0414 8.97364C10.0394 9.09089 10.0414 9.2102 10.0414 9.3295C10.0414 9.83963 10.0414 10.3498 10.0414 10.8578C10.0414 11.2322 10.0414 11.6066 10.0414 11.9809C10.0414 12.3142 10.3232 12.598 10.6585 12.598C11.5636 12.598 12.4687 12.6001 13.3738 12.6001C13.707 12.6001 13.9908 12.3162 13.9908 11.983C13.9908 11.1026 13.9908 10.2222 13.9908 9.34184C13.9908 9.21431 13.9908 9.08884 13.9908 8.9613C13.9908 8.63836 13.707 8.32981 13.3738 8.34421C13.0385 8.36067 12.7567 8.61573 12.7567 8.96336Z" fill="#7C7C8D"/>
<path d="M12.9721 5.22741C12.9721 5.30352 12.9659 5.37757 12.9556 5.45368C12.9638 5.39814 12.97 5.34466 12.9782 5.28912C12.9577 5.42694 12.9206 5.55858 12.8672 5.68612C12.8877 5.63675 12.9083 5.58738 12.9289 5.53801C12.8898 5.62852 12.8425 5.71492 12.7869 5.7972C12.7746 5.81571 12.7602 5.83422 12.7479 5.85273C12.7088 5.91239 12.8486 5.72931 12.7869 5.80131C12.754 5.83833 12.7232 5.87536 12.6882 5.91033C12.6573 5.94118 12.6224 5.97204 12.5895 6.00084C12.5051 6.07489 12.6409 5.96381 12.6409 5.96175C12.6409 5.96587 12.5792 6.00495 12.5751 6.00906C12.4928 6.0646 12.4064 6.10986 12.3159 6.151C12.3653 6.13043 12.4146 6.10986 12.464 6.08929C12.3365 6.14277 12.2048 6.17979 12.067 6.20036C12.1225 6.19214 12.176 6.18597 12.2316 6.17774C12.0814 6.19831 11.9292 6.19831 11.779 6.17774C11.8346 6.18597 11.888 6.19214 11.9436 6.20036C11.8058 6.17979 11.6741 6.14277 11.5466 6.08929C11.596 6.10986 11.6453 6.13043 11.6947 6.151C11.6042 6.11191 11.5178 6.0646 11.4355 6.00906C11.417 5.99672 11.3985 5.98232 11.38 5.96998C11.3203 5.9309 11.5034 6.07077 11.4314 6.00906C11.3944 5.97615 11.3573 5.9453 11.3224 5.91033C11.2915 5.87947 11.2607 5.84451 11.2319 5.81159C11.1578 5.72726 11.2689 5.86302 11.2709 5.86302C11.2668 5.86302 11.2278 5.80131 11.2236 5.7972C11.1681 5.71492 11.1228 5.62852 11.0817 5.53801C11.1023 5.58738 11.1228 5.63675 11.1434 5.68612C11.0899 5.55858 11.0529 5.42694 11.0323 5.28912C11.0406 5.34466 11.0467 5.39814 11.055 5.45368C11.0406 5.3426 11.0323 5.22947 11.0467 5.11633C11.0385 5.17187 11.0323 5.22535 11.0241 5.28089C11.0447 5.13073 11.094 4.9888 11.1516 4.85098C11.1311 4.90035 11.1105 4.94972 11.0899 4.99908C11.2565 4.61237 11.4931 4.25651 11.7399 3.91711C11.7996 3.83277 11.8634 3.75255 11.9251 3.67027C11.9312 3.66204 11.816 3.81015 11.8695 3.74227C11.8757 3.73404 11.8819 3.72581 11.8901 3.71758C11.9024 3.70113 11.9168 3.68467 11.9292 3.66822C11.96 3.62913 11.9929 3.58799 12.0238 3.54891C12.1164 3.43372 12.211 3.32058 12.3077 3.20951C12.3529 3.15808 12.3982 3.10666 12.4434 3.05523C12.1534 3.05523 11.8613 3.05523 11.5713 3.05523C11.7009 3.19717 11.8263 3.34733 11.9477 3.49543C12.0053 3.56537 12.0629 3.63736 12.1184 3.70935C12.1369 3.73198 12.1986 3.8122 12.1225 3.71553C12.0485 3.6209 12.104 3.6929 12.1225 3.71553C12.1575 3.76078 12.1925 3.80603 12.2254 3.85334C12.3529 4.02613 12.4763 4.20303 12.5895 4.38405C12.7149 4.58152 12.8301 4.78722 12.9227 5.0032C12.9021 4.95383 12.8816 4.90446 12.861 4.8551C12.9186 4.99291 12.968 5.1369 12.9885 5.28501C12.9803 5.22947 12.9741 5.17599 12.9659 5.12045C12.968 5.15336 12.9721 5.18833 12.9721 5.22741C12.9762 5.55036 13.2539 5.8589 13.5892 5.84451C13.9203 5.83011 14.2104 5.57298 14.2063 5.22741C14.2001 4.66791 13.8977 4.13104 13.6015 3.67439C13.3135 3.23213 12.9865 2.81251 12.645 2.4114C12.5792 2.33323 12.5113 2.25507 12.4434 2.17896C12.2254 1.94035 11.7872 1.94035 11.5713 2.17896C11.3615 2.4114 11.1619 2.65412 10.9706 2.90096C10.5736 3.41315 10.2013 3.93768 9.95654 4.54038C9.66445 5.25621 9.84546 6.03786 10.3186 6.63233C10.8472 7.29674 11.7749 7.57032 12.5874 7.35022C13.5377 7.09104 14.198 6.20448 14.2083 5.22741C14.2104 4.90446 13.9224 4.59592 13.5912 4.61031C13.2518 4.62471 12.9741 4.87978 12.9721 5.22741Z" fill="#7C7C8D"/>
</svg>
