<svg width="20" height="20" fill="none" xmlns="http://www.w3.org/2000/svg"><path d="m17.31 7.63-1.14-3.42a2.495 2.495 0 0 0-2.371-1.71H6.201A2.496 2.496 0 0 0 3.83 4.21L2.69 7.63a1.67 1.67 0 0 0-1.023 1.537v4.166c0 .628.352 1.169.865 1.453-.01.055-.032.105-.032.162v1.719a.833.833 0 0 0 .833.833h.833A.833.833 0 0 0 5 16.667V15h10v1.667a.833.833 0 0 0 .833.833h.833a.833.833 0 0 0 .834-.833v-1.719c0-.057-.022-.108-.033-.162a1.662 1.662 0 0 0 .866-1.453V9.167A1.67 1.67 0 0 0 17.31 7.63zM3.333 13.333V9.167h13.333l.002 4.166H3.333zm2.868-9.166h7.597c.36 0 .678.228.791.57l.922 2.763H4.489l.92-2.763a.833.833 0 0 1 .792-.57z" fill="#72767C"/><path d="M5.417 12.5a1.25 1.25 0 1 0 0-2.5 1.25 1.25 0 0 0 0 2.5zM14.583 12.5a1.25 1.25 0 1 0 0-2.5 1.25 1.25 0 0 0 0 2.5z" fill="#72767C"/></svg>