<svg width="20" height="20" fill="none" xmlns="http://www.w3.org/2000/svg"><path fill-rule="evenodd" clip-rule="evenodd" d="M14.584 12.5c-.377 0-.91.052-1.464.128a.57.57 0 0 0-.492.492c-.076.554-.128 1.086-.128 1.463s.052.91.128 1.464a.57.57 0 0 0 .492.491c.554.076 1.087.128 1.464.128.376 0 .909-.052 1.463-.128a.57.57 0 0 0 .492-.491c.076-.555.128-1.087.128-1.464s-.052-.91-.128-1.463a.57.57 0 0 0-.492-.492c-.554-.076-1.087-.128-1.463-.128zm-1.69-1.524c-1 .137-1.78.917-1.917 1.917-.079.574-.143 1.197-.143 1.69 0 .493.064 1.116.143 1.69.137 1 .917 1.78 1.917 1.917.573.078 1.196.143 1.69.143.493 0 1.116-.065 1.69-.143 1-.137 1.78-.917 1.916-1.917.079-.574.143-1.197.143-1.69 0-.493-.064-1.116-.143-1.69-.137-1-.917-1.78-1.917-1.917-.573-.078-1.196-.143-1.69-.143-.493 0-1.116.065-1.69.143zM5.417 12.5c-.377 0-.91.052-1.464.128a.57.57 0 0 0-.492.492c-.076.554-.128 1.086-.128 1.463s.052.91.128 1.464a.57.57 0 0 0 .492.491c.554.076 1.087.128 1.464.128.376 0 .909-.052 1.463-.128a.57.57 0 0 0 .492-.491c.076-.555.128-1.087.128-1.464s-.052-.91-.128-1.463a.57.57 0 0 0-.492-.492c-.554-.076-1.087-.128-1.463-.128zm-1.69-1.524c-1 .137-1.78.917-1.917 1.917-.079.574-.143 1.197-.143 1.69 0 .493.064 1.116.143 1.69.137 1 .917 1.78 1.917 1.917.573.078 1.196.143 1.69.143.493 0 1.116-.065 1.69-.143 1-.137 1.78-.917 1.916-1.917.079-.574.143-1.197.143-1.69 0-.493-.064-1.116-.143-1.69-.137-1-.917-1.78-1.917-1.917-.573-.078-1.196-.143-1.69-.143-.493 0-1.116.065-1.69.143zM14.584 3.334c-.377 0-.91.052-1.464.128a.57.57 0 0 0-.492.491c-.076.555-.128 1.087-.128 1.464s.052.91.128 1.463a.57.57 0 0 0 .492.492c.554.076 1.087.128 1.464.128.376 0 .909-.052 1.463-.128a.57.57 0 0 0 .492-.492c.076-.554.128-1.086.128-1.463s-.052-.91-.128-1.463a.57.57 0 0 0-.492-.492c-.554-.076-1.087-.128-1.463-.128zm-1.69-1.524c-1 .137-1.78.917-1.917 1.917-.079.574-.143 1.197-.143 1.69 0 .493.064 1.116.143 1.69.137 1 .917 1.78 1.917 1.917.573.078 1.196.143 1.69.143.493 0 1.116-.065 1.69-.143 1-.137 1.78-.917 1.916-1.917.079-.574.143-1.197.143-1.69 0-.493-.064-1.116-.143-1.69-.137-1-.917-1.78-1.917-1.917-.573-.078-1.196-.143-1.69-.143-.493 0-1.116.065-1.69.143zM5.417 3.334c-.377 0-.91.052-1.464.128a.57.57 0 0 0-.492.491c-.076.555-.128 1.087-.128 1.464s.052.91.128 1.463a.57.57 0 0 0 .492.492c.554.076 1.087.128 1.464.128.376 0 .909-.052 1.463-.128a.57.57 0 0 0 .492-.492c.076-.554.128-1.086.128-1.463s-.052-.91-.128-1.463a.57.57 0 0 0-.492-.492c-.554-.076-1.087-.128-1.463-.128zM3.727 1.81c-1 .137-1.78.917-1.917 1.917-.079.574-.143 1.197-.143 1.69 0 .493.064 1.116.143 1.69.137 1 .917 1.78 1.917 1.917.573.078 1.196.143 1.69.143.493 0 1.116-.065 1.69-.143 1-.137 1.78-.917 1.916-1.917.079-.574.143-1.197.143-1.69 0-.493-.064-1.116-.143-1.69-.137-1-.917-1.78-1.917-1.917-.573-.078-1.196-.143-1.69-.143-.493 0-1.116.065-1.69.143z" fill="#5F6165"/></svg>