<svg width="20" height="20" fill="none" xmlns="http://www.w3.org/2000/svg"><path fill-rule="evenodd" clip-rule="evenodd" d="M9.191 12.5a.833.833 0 0 1 .864.802c.04 1.036.094 1.793.148 2.336.054.534.376.856.826.91.53.065 1.278.118 2.304.118 1.027 0 1.775-.053 2.305-.117.45-.055.772-.377.825-.912.1-1.007.204-2.747.204-5.637 0-2.891-.103-4.631-.204-5.638-.053-.535-.376-.856-.825-.911a19.219 19.219 0 0 0-2.305-.118 19.22 19.22 0 0 0-2.304.118c-.45.055-.772.376-.826.91-.054.543-.109 1.3-.148 2.337a.833.833 0 1 1-1.665-.063c.04-1.064.097-1.856.155-2.439.122-1.225.976-2.24 2.282-2.4.607-.074 1.424-.13 2.506-.13 1.083 0 1.9.056 2.507.13 1.306.16 2.16 1.176 2.282 2.4.107 1.08.211 2.877.211 5.804 0 2.926-.104 4.724-.211 5.803-.122 1.224-.976 2.24-2.282 2.4a20.85 20.85 0 0 1-2.507.13c-1.082 0-1.899-.056-2.506-.13-1.306-.16-2.16-1.175-2.282-2.4a40.23 40.23 0 0 1-.155-2.439.833.833 0 0 1 .801-.864z" fill="#72767C"/><path fill-rule="evenodd" clip-rule="evenodd" d="M6.006 12.327a.833.833 0 1 1-1.179 1.179l-2.916-2.917a.833.833 0 0 1 0-1.178l2.916-2.917a.833.833 0 1 1 1.179 1.179L4.512 9.167H12.5a.833.833 0 1 1 0 1.666H4.512l1.494 1.494z" fill="#72767C"/></svg>