<svg width="21" height="21" fill="none" xmlns="http://www.w3.org/2000/svg"><mask id="a" style="mask-type:luminance" maskUnits="userSpaceOnUse" x="0" y="0" width="21" height="21"><path fill-rule="evenodd" clip-rule="evenodd" d="M20.267 8.682h-9.534v3.864h5.488c-.512 2.454-2.651 3.863-5.488 3.863-3.35 0-6.047-2.636-6.047-5.909 0-3.273 2.698-5.91 6.047-5.91A6 6 0 0 1 14.5 5.91L17.477 3C15.663 1.455 13.337.5 10.733.5 5.058.5.5 4.955.5 10.5c0 5.546 4.558 10 10.233 10 5.116 0 9.767-3.636 9.767-10 0-.59-.093-1.227-.233-1.818z" fill="#fff"/></mask><g mask="url(#a)"><path d="M-.43 16.409V4.591L7.477 10.5-.43 16.409z" fill="#FBBC05"/></g><mask id="b" style="mask-type:luminance" maskUnits="userSpaceOnUse" x="0" y="0" width="21" height="21"><path fill-rule="evenodd" clip-rule="evenodd" d="M20.267 8.682h-9.534v3.864h5.488c-.512 2.454-2.651 3.863-5.488 3.863-3.35 0-6.047-2.636-6.047-5.909 0-3.273 2.698-5.91 6.047-5.91A6 6 0 0 1 14.5 5.91L17.477 3C15.663 1.455 13.337.5 10.733.5 5.058.5.5 4.955.5 10.5c0 5.546 4.558 10 10.233 10 5.116 0 9.767-3.636 9.767-10 0-.59-.093-1.227-.233-1.818z" fill="#fff"/></mask><g mask="url(#b)"><path d="m-.43 4.59 7.907 5.91 3.256-2.773 11.163-1.773V-.409H-.43v5z" fill="#EA4335"/></g><mask id="c" style="mask-type:luminance" maskUnits="userSpaceOnUse" x="0" y="0" width="21" height="21"><path fill-rule="evenodd" clip-rule="evenodd" d="M20.267 8.682h-9.534v3.864h5.488c-.512 2.454-2.651 3.863-5.488 3.863-3.35 0-6.047-2.636-6.047-5.909 0-3.273 2.698-5.91 6.047-5.91A6 6 0 0 1 14.5 5.91L17.477 3C15.663 1.455 13.337.5 10.733.5 5.058.5.5 4.955.5 10.5c0 5.546 4.558 10 10.233 10 5.116 0 9.767-3.636 9.767-10 0-.59-.093-1.227-.233-1.818z" fill="#fff"/></mask><g mask="url(#c)"><path d="M-.43 16.409 13.524 5.954l3.674.455 4.698-6.818v21.818H-.43v-5z" fill="#34A853"/></g><mask id="d" style="mask-type:luminance" maskUnits="userSpaceOnUse" x="0" y="0" width="21" height="21"><path fill-rule="evenodd" clip-rule="evenodd" d="M20.267 8.682h-9.534v3.864h5.488c-.512 2.454-2.651 3.863-5.488 3.863-3.35 0-6.047-2.636-6.047-5.909 0-3.273 2.698-5.91 6.047-5.91A6 6 0 0 1 14.5 5.91L17.477 3C15.663 1.455 13.337.5 10.733.5 5.058.5.5 4.955.5 10.5c0 5.546 4.558 10 10.233 10 5.116 0 9.767-3.636 9.767-10 0-.59-.093-1.227-.233-1.818z" fill="#fff"/></mask><g mask="url(#d)"><path d="M21.894 21.409 7.476 10.499l-1.86-1.363 16.278-4.545v16.818z" fill="#4285F4"/></g></svg>