<svg width="24" height="24" viewBox="0 0 24 24" fill="none" xmlns="http://www.w3.org/2000/svg">
<path d="M4.94205 9.85486L4.94142 9.85549C2.40466 12.3922 2.40466 16.5169 4.94142 19.0536C7.47818 21.5904 11.6028 21.5904 14.1396 19.0536C16.6763 16.5169 16.6763 12.3922 14.1396 9.85549L14.139 9.85486C12.8709 8.59132 11.205 7.955 9.5405 7.955C7.87597 7.955 6.21011 8.59132 4.94205 9.85486ZM9.5405 21.4999C7.73456 21.4999 5.93435 20.8114 4.56111 19.4381C1.81492 16.6919 1.81492 12.2214 4.56111 9.47517C7.3073 6.72898 11.7779 6.72898 14.5241 9.47517C17.2702 12.2213 17.2703 16.6918 14.5242 19.438C13.1467 20.8114 11.3422 21.4999 9.5405 21.4999Z" fill="#7C7C8D" stroke="#7C7C8D"/>
<path d="M14.3308 10.4388C14.135 10.4388 13.9392 10.3639 13.785 10.2139C13.4851 9.91388 13.4851 9.42642 13.785 9.12644L20.6845 2.22694C20.9845 1.92696 21.472 1.92696 21.772 2.22694C22.0719 2.52692 22.0719 3.01438 21.772 3.31436L14.8766 10.2139C14.7225 10.3639 14.5267 10.4388 14.3308 10.4388Z" fill="#7C7C8D"/>
<path d="M21.0182 9.22983C21.0099 9.22983 20.9974 9.22983 20.9891 9.22983C20.5641 9.21316 20.2349 8.85902 20.2474 8.43405L20.4266 3.5719L15.5644 3.74689C15.127 3.76772 14.7812 3.43024 14.7687 3.00528C14.752 2.58031 15.0853 2.222 15.5103 2.2095L21.2015 2.00118C21.414 1.98868 21.6223 2.07618 21.7723 2.22616C21.9223 2.37615 22.0056 2.58447 21.9973 2.79696L21.789 8.48405C21.7723 8.90485 21.4307 9.22983 21.0182 9.22983Z" fill="#7C7C8D"/>
</svg>
