<svg width="20" height="20" fill="none" xmlns="http://www.w3.org/2000/svg"><path fill-rule="evenodd" clip-rule="evenodd" d="M5.833 13.251v2.578l4.219-2.493.44-.007a34.076 34.076 0 0 0 4.511-.385c.745-.113 1.262-.632 1.375-1.285a19.75 19.75 0 0 0 .288-3.326c0-1.274-.132-2.42-.288-3.325-.113-.653-.63-1.173-1.374-1.286A33.763 33.763 0 0 0 10 3.333c-1.949 0-3.713.193-5.004.39-.744.112-1.262.632-1.374 1.285a19.751 19.751 0 0 0-.289 3.325c0 1.274.133 2.421.289 3.326.097.567.493 1.02 1.07 1.213l1.141.38zM1.98 4.725c.242-1.404 1.358-2.436 2.766-2.65 1.35-.206 3.201-.408 5.255-.408 2.053 0 3.905.202 5.254.407 1.409.215 2.525 1.247 2.766 2.65.169.98.313 2.222.313 3.61 0 1.387-.144 2.63-.313 3.608-.241 1.404-1.357 2.436-2.766 2.65a35.73 35.73 0 0 1-4.734.404l-5.096 3.011a.833.833 0 0 1-1.258-.717v-2.837c-1.127-.375-1.979-1.306-2.187-2.511a21.416 21.416 0 0 1-.313-3.609c0-1.387.145-2.63.313-3.608z" fill="#72767C"/><path fill-rule="evenodd" clip-rule="evenodd" d="M5.833 5.833a.833.833 0 0 0 0 1.667h8.334a.833.833 0 0 0 0-1.667H5.833zm0 3.334a.833.833 0 1 0 0 1.666h3.334a.833.833 0 0 0 0-1.666H5.833z" fill="#72767C"/></svg>