<svg width="16" height="16" fill="none" xmlns="http://www.w3.org/2000/svg"><path fill-rule="evenodd" clip-rule="evenodd" d="M1.561 4.23c.177-1.024.991-1.776 2.02-1.933C4.566 2.147 5.917 2 7.416 2c1.5 0 2.85.148 3.835.297 1.029.157 1.843.91 2.02 1.933.123.713.228 1.62.228 2.631 0 1.012-.105 1.918-.228 2.631-.177 1.024-.992 1.776-2.02 1.933a26.12 26.12 0 0 1-3.455.294l-3.72 2.196a.608.608 0 0 1-.918-.524v-2.068a2.345 2.345 0 0 1-1.597-1.83 15.599 15.599 0 0 1-.228-2.632c0-1.012.105-1.918.228-2.631zm2.205 1.416c0-.336.273-.608.609-.608h6.082a.608.608 0 1 1 0 1.215H4.374a.608.608 0 0 1-.608-.607zm0 2.43c0-.335.273-.607.609-.607h2.433a.608.608 0 1 1 0 1.215H4.375a.608.608 0 0 1-.609-.608z" fill="#A9ABAD"/></svg>