<svg width="20" height="20" fill="none" xmlns="http://www.w3.org/2000/svg"><path d="M4.583 14.584h-1.25V5.417h6.5l-.667.667a.757.757 0 0 0-.25.583c0 .5.334.833.834.833.25 0 .416-.083.583-.25l2.083-2.083a.806.806 0 0 0 0-1.167l-2.083-2.083a.806.806 0 0 0-1.167 0 .806.806 0 0 0 0 1.167l.667.666H2.5c-.5 0-.833.334-.833.834v10.833c0 .5.333.833.833.833h2.083c.5 0 .833-.333.833-.833 0-.5-.333-.833-.833-.833zM17.5 3.75h-2.084c-.5 0-.833.334-.833.834 0 .5.333.833.833.833h1.25v9.167h-7l.667-.667a.806.806 0 0 0 0-1.167.806.806 0 0 0-1.167 0l-2.083 2.084a.805.805 0 0 0 0 1.166l2.083 2.084c.167.166.334.25.584.25.25 0 .416-.084.583-.25a.806.806 0 0 0 0-1.167l-.667-.667H17.5c.5 0 .833-.333.833-.833V4.584c0-.5-.333-.834-.833-.834z" fill="#72767C"/></svg>