<svg width="18" height="17" fill="none" xmlns="http://www.w3.org/2000/svg"><path d="M3.584 13.084h-1.25V3.917h6.5l-.667.667a.757.757 0 0 0-.25.583c0 .5.333.833.833.833.25 0 .417-.083.584-.25l2.083-2.083a.806.806 0 0 0 0-1.167L9.334.417a.806.806 0 0 0-1.167 0 .806.806 0 0 0 0 1.167l.667.666H1.5c-.5 0-.833.334-.833.834v10.833c0 .5.333.833.833.833h2.084c.5 0 .833-.333.833-.833 0-.5-.333-.833-.833-.833zM16.5 2.25h-2.083c-.5 0-.833.334-.833.834 0 .5.333.833.833.833h1.25v9.167h-7l.667-.667a.806.806 0 0 0 0-1.167.806.806 0 0 0-1.167 0l-2.083 2.084a.805.805 0 0 0 0 1.166l2.083 2.084c.167.166.333.25.583.25.25 0 .417-.084.584-.25a.806.806 0 0 0 0-1.167l-.667-.667H16.5c.5 0 .834-.333.834-.833V3.084c0-.5-.334-.834-.834-.834z" fill="#A162F7"/></svg>