<svg width="30" height="30" fill="none" xmlns="http://www.w3.org/2000/svg"><path fill-rule="evenodd" clip-rule="evenodd" d="M14.512 3v1.566c-1.244.331-2.666 1.277-2.686 2.067a.415.415 0 0 0 .42.42h6.186a.415.415 0 0 0 .42-.42c-.02-.79-1.442-1.736-2.686-2.067V3h-1.654zM17.041 8.786a.71.71 0 1 1-1.418.003.71.71 0 0 1 1.418-.003zM19.03 8.786a.709.709 0 1 1-1.209-.502.708.708 0 0 1 1.21.502zM19.378 11.157a.709.709 0 1 1-1.21-.502.708.708 0 0 1 1.21.502zM19.725 13.53a.71.71 0 1 1-1.419.002.71.71 0 0 1 1.42-.003zM17.157 11.357a.709.709 0 1 1-1.21-.501.708.708 0 0 1 1.21.502zM17.273 13.93a.709.709 0 1 1-1.21-.502.708.708 0 0 1 1.21.502zM13.636 8.786a.71.71 0 1 0 1.418.003.71.71 0 0 0-1.418-.003zM11.646 8.786a.709.709 0 1 0 1.21-.502.708.708 0 0 0-1.21.502zM11.299 11.157a.71.71 0 1 0 1.419.003.71.71 0 0 0-1.42-.003zM10.952 13.53a.71.71 0 1 0 1.419.002.71.71 0 0 0-1.419-.003zM13.52 11.357a.71.71 0 1 0 1.418.003.71.71 0 0 0-1.418-.002zM13.404 13.93a.709.709 0 1 0 1.21-.502.708.708 0 0 0-1.21.502zM11.543 15.398a.462.462 0 0 0-.369.188l-3.087 4.253a.458.458 0 0 0-.087.267v3.784c0 .119.05.237.133.321a.46.46 0 0 0 .322.133h13.767a.46.46 0 0 0 .322-.133.46.46 0 0 0 .133-.321v-3.784a.458.458 0 0 0-.087-.267l-3.087-4.253a.462.462 0 0 0-.369-.188h-7.591zm.104.466h7.383a.28.28 0 0 1 .225.118l1.397 1.993a.282.282 0 0 1 .019.286.281.281 0 0 1-.245.148H10.25c-.1 0-.198-.06-.245-.148a.282.282 0 0 1 .019-.286l1.397-1.993a.28.28 0 0 1 .224-.118zm-1.243 4.458a1.09 1.09 0 1 1 0 2.18 1.09 1.09 0 0 1 0-2.18zm9.869 0a1.09 1.09 0 1 1 0 2.18 1.09 1.09 0 0 1 0-2.18z" fill="#FF6370"/><path fill-rule="evenodd" clip-rule="evenodd" d="M9.537 23.821v2.537a.65.65 0 0 0 .66.642h1.04a.65.65 0 0 0 .662-.642V23.82H9.537zm9.419 0v2.537a.65.65 0 0 0 .66.642h1.04a.65.65 0 0 0 .661-.642V23.82h-2.361zM20.532 17.091l.99 1.368.295-.045c.406-.061.731-.42.63-.783-.212-.756-1.261-.54-1.915-.54zM10.145 17.091l-.99 1.368-.295-.045c-.406-.061-.73-.42-.63-.783.213-.756 1.262-.54 1.915-.54z" fill="#FF6370"/></svg>