<svg width="26" height="26" fill="none" xmlns="http://www.w3.org/2000/svg"><path d="m7.38 9.196.134.134 1.85-1.852-.133-.133a3.43 3.43 0 0 0-4.484-4.483L6.99 5.104l-1.851 1.85-2.242-2.241A3.43 3.43 0 0 0 7.38 9.196zM19.67 7.527l1.684-.556 1.573-2.709-1.135-1.135L19.083 4.7l-.555 1.683-1.404 1.403 1.143 1.143 1.404-1.403zM23.192 21.287a3.43 3.43 0 0 0-4.483-4.484l-.203-.202-1.85 1.851.202.203a3.429 3.429 0 0 0 4.483 4.483L19.1 20.896l1.852-1.85 2.24 2.24zM17.394 15.419c.192-.34.344-.705.452-1.089h1.306v-2.715h-1.306a4.944 4.944 0 0 0-.452-1.089l.924-.923-1.92-1.921-.923.924a4.985 4.985 0 0 0-1.09-.452V6.85H11.67v1.305c-.384.108-.748.261-1.09.452l-.923-.924-1.92 1.92.924.924c-.191.34-.344.706-.452 1.089H6.903v2.715H8.21c.108.384.26.749.452 1.089l-.924.924 1.92 1.92.924-.924c.34.191.705.344 1.089.452v1.305h2.715v-1.305c.384-.108.75-.261 1.09-.452l.923.924 1.92-1.92-.924-.924zm-4.367.424a2.87 2.87 0 1 1 0-5.742 2.87 2.87 0 0 1 0 5.742zM4.986 23.399 2.6 21.01l4.69-4.689 2.386 2.387-4.69 4.69z" fill="#A162F7"/></svg>