<svg width="20" height="20" fill="none" xmlns="http://www.w3.org/2000/svg"><path d="M18.09 3.09a.833.833 0 0 0-1.18-1.18L6.495 12.328a.833.833 0 1 0 1.178 1.179L18.09 3.089zM4.34 16.84a.833.833 0 1 0-1.18-1.18l-1.25 1.25a.833.833 0 1 0 1.18 1.18l1.25-1.25z" fill="#72767C"/><path fill-rule="evenodd" clip-rule="evenodd" d="M5.206 16.182c.23.23.589.32.843.114a1.667 1.667 0 1 0-2.344-2.344c-.206.253-.118.611.113.842l1.388 1.388zm.813 1.993c-.63.202-1.282-.105-1.751-.574l-1.869-1.869c-.469-.469-.776-1.12-.573-1.751a3.335 3.335 0 1 1 4.193 4.194z" fill="#72767C"/><path d="M1.91 3.09a.833.833 0 0 1 1.18-1.18l10.416 10.417a.833.833 0 0 1-1.178 1.179L1.91 3.089zM15.66 16.84a.833.833 0 0 1 1.18-1.18l1.25 1.25a.833.833 0 1 1-1.18 1.18l-1.25-1.25z" fill="#72767C"/><path fill-rule="evenodd" clip-rule="evenodd" d="M14.794 16.182c-.23.23-.589.32-.843.114a1.667 1.667 0 1 1 2.344-2.344c.206.253.118.611-.113.842l-1.388 1.388zm-.814 1.993c.632.202 1.283-.105 1.752-.574l1.869-1.869c.469-.469.776-1.12.573-1.751A3.335 3.335 0 0 0 11.666 15c0 1.485.972 2.744 2.314 3.175z" fill="#72767C"/></svg>