<svg width="26" height="26" fill="none" xmlns="http://www.w3.org/2000/svg"><path d="M12.884 15.97a3.277 3.277 0 0 1-1.88-.599l1.88 1.623 1.88-1.623c-.598.385-1.24.598-1.88.598z" fill="#70CF97"/><path d="M21.085 18.915c-.085-.812-.64-1.452-1.41-1.709l-3.544-1.067-.684 2.392a.852.852 0 0 1-1.324.47l-1.238-.898-1.239.897a.852.852 0 0 1-1.324-.47l-.683-2.391-3.546 1.068c-.768.213-1.324.897-1.41 1.708l-.34 3.331c-.086.598.426 1.154 1.024 1.154H20.36c.64 0 1.11-.556 1.068-1.154l-.342-3.331zM15.191 8.323a6.235 6.235 0 0 1-2.263.427 5.254 5.254 0 0 1-2.82-.812c-.939 1.24-.939 3.845-.939 3.887.555 1.922 2.007 3.716 3.716 3.716 1.708 0 3.16-1.837 3.716-3.759.17-1.324-1.068-2.861-1.41-3.46v.001z" fill="#70CF97"/><path d="M17.155 7.767a4.185 4.185 0 0 0-1.067-2.605 401.42 401.42 0 0 1-2.307-.982s-3.716-1.154-4.57 1.836c-.043.043-.043.043-.085.043-.086 0-.214.043-.384.085a4.157 4.157 0 0 0-.428 1.623c.171.171.3.427.3.684v2.392c0 .128-.043.213-.043.341.128.257.256.513.384.684 0 0-.555-3.16.897-4.442 0 0 2.135 1.836 5.51.427 0 0 1.623 2.093 1.324 4.015 0 0 .128-.214.213-.555a.86.86 0 0 1-.128-.47v-2.35c.085-.299.214-.555.384-.726zM10.023 16.011l.683 2.392a.404.404 0 0 0 .64.213l1.495-1.067-2.263-1.965-.555.427zM15.063 18.446l.683-2.392-.597-.427-2.264 1.965 1.495 1.067c.256.171.598.043.683-.213z" fill="#70CF97"/><path d="M7.588 11.356h.128a.565.565 0 0 0 .555-.556V8.451a.525.525 0 0 0-.299-.47c.043-2.648 2.179-4.783 4.827-4.783s4.826 2.135 4.826 4.783a.525.525 0 0 0-.299.47v2.392c0 .299.257.555.556.555h.128c.512 0 .94-.427.94-.94V8.922c0-.427-.3-.769-.684-.897-.043-2.99-2.477-5.424-5.467-5.424-2.99 0-5.424 2.434-5.467 5.424-.384.128-.684.47-.684.897v1.495c0 .512.428.94.94.94z" fill="#70CF97"/></svg>