<svg width="24" height="24" fill="none" xmlns="http://www.w3.org/2000/svg"><path fill-rule="evenodd" clip-rule="evenodd" d="M2 16a1 1 0 1 0 0 2h11a1 1 0 1 0 0-2H2zm17 0a1 1 0 1 0 0 2h3a1 1 0 1 0 0-2h-3z" fill="#fff"/><path fill-rule="evenodd" clip-rule="evenodd" d="M16 19a2 2 0 1 0 0-4 2 2 0 0 0 0 4zm0 2a4 4 0 1 0 0-8 4 4 0 0 0 0 8zM2 6a1 1 0 0 0 0 2h3a1 1 0 0 0 0-2H2zm9 0a1 1 0 1 0 0 2h11a1 1 0 1 0 0-2H11z" fill="#fff"/><path fill-rule="evenodd" clip-rule="evenodd" d="M8 9a2 2 0 1 0 0-4 2 2 0 0 0 0 4zm0 2a4 4 0 1 0 0-8 4 4 0 0 0 0 8z" fill="#fff"/></svg>