<svg width="20" height="20" fill="none" xmlns="http://www.w3.org/2000/svg"><path d="m18.09 12.982-3.767-3.758c.079-.384.118-.775.117-1.167a6.392 6.392 0 0 0-9.092-5.792.833.833 0 0 0-.242 1.35l3.626 3.617-1.5 1.5-3.617-3.625a.833.833 0 0 0-.734-.225.834.834 0 0 0-.616.467 6.392 6.392 0 0 0 7 8.975l3.758 3.766a.832.832 0 0 0 1.184 0 .834.834 0 0 0 0-1.183l-4.084-4.083a.834.834 0 0 0-.791-.217 4.897 4.897 0 0 1-1.234.167 4.724 4.724 0 0 1-4.767-4.717 5 5 0 0 1 .067-.833l3.267 3.275a.833.833 0 0 0 1.183 0l2.65-2.675a.833.833 0 0 0 0-1.159L7.257 3.4a5.1 5.1 0 0 1 .833-.067 4.725 4.725 0 0 1 4.716 4.725 4.897 4.897 0 0 1-.166 1.233.835.835 0 0 0 .216.792l4.084 4.083a.837.837 0 0 0 1.183-1.183h-.033z" fill="#72767C"/></svg>