<svg width="20" height="20" fill="none" xmlns="http://www.w3.org/2000/svg"><path fill-rule="evenodd" clip-rule="evenodd" d="M16.624 5.909a2.492 2.492 0 0 0-.732-1.801 2.493 2.493 0 0 0-1.8-.732c-.001 0 0 0 0 0a2.503 2.503 0 0 0-1.395.447.152.152 0 0 1-.145.017.152.152 0 0 1-.091-.115A2.5 2.5 0 0 0 10 1.667a2.503 2.503 0 0 0-2.461 2.058.152.152 0 0 1-.091.115.152.152 0 0 1-.145-.017 2.483 2.483 0 0 0-1.394-.447 2.494 2.494 0 0 0-1.802.732 2.493 2.493 0 0 0-.732 1.801 2.504 2.504 0 0 0 .447 1.394c.03.043.037.098.017.145a.152.152 0 0 1-.114.091 2.482 2.482 0 0 0-1.302.67A2.494 2.494 0 0 0 1.667 10a2.493 2.493 0 0 0 .756 1.792 2.504 2.504 0 0 0 1.302.67c.05.008.094.042.114.09a.152.152 0 0 1-.017.145 2.483 2.483 0 0 0-.447 1.394c-.008.65.236 1.305.732 1.802a2.505 2.505 0 0 0 3.196.285.152.152 0 0 1 .145-.017c.048.02.082.063.09.114a2.481 2.481 0 0 0 .67 1.302c.454.466 1.09.757 1.792.757s1.337-.29 1.791-.756a2.504 2.504 0 0 0 .67-1.303.152.152 0 0 1 .09-.114.152.152 0 0 1 .146.017 2.478 2.478 0 0 0 1.393.447 2.494 2.494 0 0 0 1.802-.732 2.504 2.504 0 0 0 .285-3.196.152.152 0 0 1-.016-.145.152.152 0 0 1 .114-.09 2.488 2.488 0 0 0 1.302-.67c.466-.454.756-1.09.756-1.792a2.493 2.493 0 0 0-.756-1.791 2.503 2.503 0 0 0-1.302-.67.152.152 0 0 1-.114-.09.152.152 0 0 1 .016-.146 2.485 2.485 0 0 0 .447-1.394zm-1.91-.623a.834.834 0 0 0-1.064-.096 1.819 1.819 0 0 1-2.83-1.172.834.834 0 0 0-1.64 0A1.819 1.819 0 0 1 6.35 5.19a.834.834 0 0 0-1.16 1.16 1.819 1.819 0 0 1-1.173 2.83.834.834 0 0 0 0 1.64 1.819 1.819 0 0 1 1.173 2.83.834.834 0 0 0 1.16 1.16 1.819 1.819 0 0 1 2.83 1.173.834.834 0 0 0 1.64 0 1.819 1.819 0 0 1 2.83-1.172.834.834 0 0 0 1.16-1.16 1.819 1.819 0 0 1 1.172-2.83.834.834 0 0 0 0-1.641 1.819 1.819 0 0 1-1.172-2.83.834.834 0 0 0-.096-1.064z" fill="#72767C"/><path fill-rule="evenodd" clip-rule="evenodd" d="M10 11.667a1.667 1.667 0 1 0 0-3.333 1.667 1.667 0 0 0 0 3.333zm0 1.667a3.333 3.333 0 1 0 0-6.667 3.333 3.333 0 0 0 0 6.667z" fill="#72767C"/></svg>