<svg width="16" height="16" fill="none" xmlns="http://www.w3.org/2000/svg"><path d="M9.337 7.337h-.666V6.67a.667.667 0 0 0-1.334 0v.667h-.666a.667.667 0 1 0 0 1.333h.666v.667a.667.667 0 0 0 1.334 0V8.67h.666a.667.667 0 0 0 0-1.333zm5.14.193-1.566-1.526v-2.24a.666.666 0 0 0-.667-.667h-2.207L8.477 1.53a.666.666 0 0 0-.946 0L6.004 3.097h-2.24a.667.667 0 0 0-.667.667v2.24L1.531 7.53a.667.667 0 0 0 0 .947l1.566 1.56v2.206a.666.666 0 0 0 .667.667h2.24l1.56 1.567a.666.666 0 0 0 .947 0l1.56-1.567h2.206a.667.667 0 0 0 .667-.667v-2.206l1.567-1.56a.667.667 0 0 0-.034-.947zm-2.7 1.76a.668.668 0 0 0-.2.474v1.813H9.764a.666.666 0 0 0-.473.2l-1.287 1.287-1.287-1.287a.668.668 0 0 0-.473-.2H4.431V9.764a.667.667 0 0 0-.2-.474L2.944 8.004l1.287-1.287a.667.667 0 0 0 .2-.473V4.43h1.813a.667.667 0 0 0 .473-.2l1.287-1.286L9.291 4.23a.667.667 0 0 0 .473.2h1.813v1.814a.666.666 0 0 0 .2.473l1.287 1.287-1.287 1.286z" fill="#72767C"/></svg>