<svg width="38" height="39" fill="none" xmlns="http://www.w3.org/2000/svg"><circle cx="19" cy="19.5" r="19" fill="#F6CC0D" fill-opacity=".1"/><path fill-rule="evenodd" clip-rule="evenodd" d="M20.2 29.5c-.401 0-2.575-.218-2.697-.243C14.966 28.742 13 24.87 13 20.5c0-4.365 1.963-8.238 4.498-8.757.122-.025 2.3-.243 2.702-.243 2.982 0 5.4 4.03 5.4 9s-2.418 9-5.4 9zm.9-3.6c1.491 0 2.7-2.417 2.7-5.4 0-2.982-1.209-5.4-2.7-5.4s-2.7 2.418-2.7 5.4c0 2.983 1.209 5.4 2.7 5.4zm-.714-9.526c.248-.24.52-.374.804-.374.284 0 .556.134.805.376.062.06-.027.534-.267 1.421-.18.606-.36.91-.538.91-.179.003-.357-.298-.536-.9-.24-.895-.33-1.373-.268-1.433zm2.193 1.02a8.86 8.86 0 0 1 .396 1.722c.088.651.12 1.314.1 1.958-.004.16-.22.103-.644-.17-.296-.227-.471-.544-.527-.951-.055-.407.008-.908.191-1.504.28-.825.441-1.177.484-1.055zm.274 5.33a5.912 5.912 0 0 1-.558 1.438c-.23.403-.483.679-.744.834-.064.039-.108-.47-.131-1.526-.002-.746.069-1.245.213-1.498.144-.254.361-.263.653-.029.413.385.602.646.567.781zm-2.023 2.274c-.26-.155-.512-.431-.742-.833a5.924 5.924 0 0 1-.56-1.442c-.034-.136.153-.394.564-.773.294-.234.514-.226.658.025.145.25.216.745.213 1.485-.024 1.064-.069 1.577-.133 1.538zm-1.525-3.925c-.019-.642.013-1.303.1-1.952a8.858 8.858 0 0 1 .398-1.726c.043-.123.203.227.48 1.049.183.6.248 1.105.193 1.513-.054.409-.228.724-.521.947-.429.272-.645.329-.65.17z" fill="#F6CC0D"/></svg>