<svg width="20" height="20" fill="none" xmlns="http://www.w3.org/2000/svg"><path d="M10 5.834a.833.833 0 0 0-.833.833V10a.833.833 0 0 0 1.666 0V6.667A.833.833 0 0 0 10 5.834zm.767 7.183a.632.632 0 0 0-.075-.15l-.1-.125a.833.833 0 0 0-.909-.175.959.959 0 0 0-.275.175.834.834 0 0 0-.175.908.75.75 0 0 0 .45.45.783.783 0 0 0 .633 0 .75.75 0 0 0 .45-.45.833.833 0 0 0 .067-.316 1.131 1.131 0 0 0 0-.167.537.537 0 0 0-.066-.15zM10 1.667a8.333 8.333 0 1 0 0 16.667 8.333 8.333 0 0 0 0-16.667zm0 15a6.667 6.667 0 1 1 0-13.334 6.667 6.667 0 0 1 0 13.334z" fill="#FF5A5A"/></svg>